<?xml version="1.0" standalone="no"?>
<!DOCTYPE svg PUBLIC "-//W3C//DTD SVG 20010904//EN"
 "http://www.w3.org/TR/2001/REC-SVG-20010904/DTD/svg10.dtd">
<svg version="1.0" xmlns="http://www.w3.org/2000/svg"
 width="852.000000pt" height="737.000000pt" viewBox="0 0 852.000000 737.000000"
 preserveAspectRatio="xMidYMid meet">

<g transform="translate(0.000000,737.000000) scale(0.100000,-0.100000)"
fill="#000000" stroke="none">
<path d="M7520 7217 c-62 -17 -112 -50 -158 -103 -33 -37 -49 -74 -101 -228
l-63 -185 -331 -3 c-375 -4 -371 -3 -457 -84 -67 -63 -95 -129 -94 -224 1 -47
7 -89 18 -114 25 -57 100 -131 159 -157 49 -23 66 -24 279 -27 l226 -3 -55
-167 c-31 -92 -63 -175 -71 -184 -14 -17 -180 -18 -3212 -18 -2266 0 -3214 -3
-3255 -11 -74 -14 -119 -36 -169 -86 -121 -119 -121 -317 0 -436 50 -50 95
-72 169 -86 41 -8 955 -11 3131 -11 l3073 0 15 -22 c9 -12 16 -33 16 -45 0
-12 -207 -652 -460 -1420 -347 -1055 -465 -1402 -481 -1415 -20 -17 -147 -18
-2358 -18 -2510 0 -2392 2 -2476 -50 -51 -32 -102 -96 -126 -159 -54 -143 16
-313 159 -383 46 -22 56 -23 403 -28 327 -5 359 -7 377 -23 32 -29 32 -51 -4
-130 -58 -128 -77 -215 -77 -362 -1 -91 4 -151 16 -200 84 -341 333 -589 673
-671 102 -25 285 -23 397 4 337 83 594 351 663 691 13 65 15 114 11 210 -6
140 -22 209 -75 324 -29 64 -34 83 -26 105 19 53 5 52 750 49 670 -2 693 -3
713 -21 16 -15 21 -29 19 -55 -3 -32 -11 -41 -73 -83 -330 -221 -381 -660
-110 -934 118 -119 270 -184 431 -184 103 0 165 15 269 65 274 132 403 445
305 741 -43 128 -159 268 -272 325 -65 33 -74 105 -17 134 23 12 86 15 343 15
292 0 319 2 368 20 73 28 224 158 249 215 10 23 316 946 679 2051 363 1105
679 2064 701 2131 l40 122 322 3 c364 4 361 3 447 84 67 63 95 129 94 224 -1
47 -7 89 -18 114 -25 57 -100 131 -159 157 -49 22 -66 24 -269 27 l-216 3 25
72 c64 181 10 343 -141 417 -73 36 -150 46 -216 27z m-4904 -5881 c252 -115
266 -463 24 -603 -163 -95 -387 -21 -468 156 -130 280 162 575 444 447z m2494
-234 c91 -45 149 -153 137 -254 -16 -131 -126 -230 -257 -230 -148 0 -260 111
-260 257 0 130 80 226 215 259 38 9 110 -5 165 -32z"/>
<path d="M3791 4716 c-13 -7 -30 -24 -37 -37 -19 -34 -18 -120 2 -148 35 -49
53 -51 494 -51 l410 0 0 -50 0 -50 -412 0 c-548 0 -508 25 -508 -320 l0 -222
28 -28 c22 -21 42 -30 83 -35 30 -3 279 -5 554 -3 454 3 503 5 532 21 59 32
69 136 18 194 l-23 28 -449 6 c-246 3 -449 7 -450 7 -2 1 -3 25 -3 52 l0 50
408 0 c448 0 450 0 496 63 19 26 21 45 24 225 4 226 -2 263 -51 292 -31 19
-54 20 -562 20 -421 -1 -535 -3 -554 -14z"/>
<path d="M2234 4709 c-53 -15 -79 -53 -78 -115 0 -41 5 -59 22 -77 29 -30 84
-47 156 -47 l56 0 0 -195 0 -195 -62 0 c-128 0 -181 -35 -182 -119 -1 -60 24
-99 75 -117 45 -17 1154 -19 1213 -3 63 17 86 48 86 114 0 46 -4 60 -24 80
-29 29 -84 45 -158 45 l-58 0 0 195 0 195 53 0 c69 0 124 16 153 45 19 19 24
35 24 78 0 66 -24 102 -78 117 -46 12 -1153 12 -1198 -1z m756 -434 l0 -195
-155 0 -155 0 0 195 0 195 155 0 155 0 0 -195z"/>
<path d="M2261 3562 c-19 -9 -44 -30 -55 -45 -20 -28 -21 -40 -21 -405 0 -207
4 -390 8 -405 5 -20 20 -34 50 -47 40 -18 72 -20 572 -20 333 0 544 4 567 10
20 6 46 22 58 37 19 25 20 38 20 407 0 343 -2 385 -18 416 -24 49 -73 73 -140
66 -99 -9 -131 -52 -140 -183 l-5 -83 -338 0 -339 0 0 80 c0 107 -16 145 -72
170 -54 24 -103 25 -147 2z m899 -587 l0 -95 -337 2 -338 3 -3 79 c-2 44 -1
85 2 93 4 10 70 13 341 13 l335 0 0 -95z"/>
<path d="M3791 3566 c-13 -7 -30 -24 -37 -37 -19 -34 -18 -120 2 -148 35 -49
53 -51 494 -51 l410 0 0 -50 0 -50 -412 0 c-548 0 -508 25 -508 -320 l0 -222
28 -28 c22 -21 42 -30 83 -35 30 -3 279 -5 554 -3 454 3 503 5 532 21 59 32
69 136 18 194 l-23 28 -449 6 c-246 3 -449 7 -450 7 -2 1 -3 25 -3 52 l0 50
408 0 c448 0 450 0 496 63 19 26 21 45 24 225 4 226 -2 263 -51 292 -31 19
-54 20 -562 20 -421 -1 -535 -3 -554 -14z"/>
</g>
</svg>
