<svg width="50" height="50" viewBox="0 0 50 50" fill="none" xmlns="http://www.w3.org/2000/svg">
<path d="M12.1122 17.5155L15.6995 33.1511H42.5239L46.1111 17.5155H21.6178H12.1122Z" fill="#067FEF" fill-opacity="0.16"/>
<path d="M42.4883 9.28444H32.2383V12.5155H42.4883V9.28444Z" fill="#067FEF" fill-opacity="0.16"/>
<path d="M44.7461 35.9289H13.4772C13.2178 35.9289 12.9928 35.7495 12.9356 35.4967L8.07833 14.1633C7.58667 12.0028 5.69556 10.4945 3.48 10.4945H0.555556C0.248889 10.4945 0 10.2456 0 9.9389C0 9.63224 0.248889 9.38335 0.555556 9.38335H3.48C6.21722 9.38335 8.55389 11.2472 9.16167 13.9167L13.92 34.8183H44.3022L48.7478 15.2939H21.6178C21.3111 15.2939 21.0622 15.045 21.0622 14.7383C21.0622 14.4317 21.3111 14.1828 21.6178 14.1828H49.4444C49.6139 14.1828 49.7733 14.26 49.8783 14.3917C49.9839 14.5239 50.0239 14.6967 49.9856 14.8617L45.2872 35.4967C45.23 35.7495 45.0056 35.9289 44.7461 35.9289Z" fill="black"/>
<path d="M10.7989 43.5922C8.38 43.5922 6.41167 41.6245 6.41167 39.2056C6.41167 36.7867 8.37944 34.8183 10.7989 34.8183H44.7111C45.0183 34.8183 45.2667 35.0667 45.2667 35.3739C45.2667 35.6811 45.0183 35.9295 44.7111 35.9295H10.7989C8.99278 35.9295 7.52278 37.3995 7.52278 39.2056C7.52278 41.0117 8.99278 42.4811 10.7989 42.4811C11.1056 42.4811 11.3544 42.7295 11.3544 43.0367C11.3544 43.3439 11.1056 43.5922 10.7989 43.5922Z" fill="black"/>
<path d="M40.7911 47.1161C38.5422 47.1161 36.7122 45.2861 36.7122 43.0367C36.7122 40.7872 38.5422 38.9572 40.7911 38.9572C43.0406 38.9572 44.8706 40.7872 44.8706 43.0367C44.8706 45.2861 43.0406 47.1161 40.7911 47.1161ZM40.7911 40.0683C39.155 40.0683 37.8233 41.3995 37.8233 43.0367C37.8233 44.6739 39.1544 46.005 40.7911 46.005C42.4278 46.005 43.7594 44.6739 43.7594 43.0367C43.7594 41.3995 42.4278 40.0683 40.7911 40.0683Z" fill="black"/>
<path d="M18.8661 47.1161C16.6172 47.1161 14.7872 45.2861 14.7872 43.0367C14.7872 40.7872 16.6172 38.9572 18.8661 38.9572C21.1155 38.9572 22.9455 40.7872 22.9455 43.0367C22.9455 45.2861 21.1155 47.1161 18.8661 47.1161ZM18.8661 40.0683C17.2294 40.0683 15.8983 41.3995 15.8983 43.0367C15.8983 44.6739 17.2294 46.005 18.8661 46.005C20.5028 46.005 21.8344 44.6739 21.8344 43.0367C21.8344 41.3995 20.5028 40.0683 18.8661 40.0683Z" fill="black"/>
<path d="M32.2694 43.5922H22.39C22.0833 43.5922 21.8344 43.3439 21.8344 43.0367C21.8344 42.7295 22.0833 42.4811 22.39 42.4811H32.2694C32.5767 42.4811 32.825 42.7295 32.825 43.0367C32.825 43.3439 32.5767 43.5922 32.2694 43.5922Z" fill="black"/>
<path d="M44.7106 15.2933H30.0161C29.7089 15.2933 29.4606 15.0444 29.4606 14.7378V7.06222C29.4606 6.75556 29.7089 6.50667 30.0161 6.50667H44.7106C45.0178 6.50667 45.2661 6.75556 45.2661 7.06222V14.7378C45.2661 15.045 45.0178 15.2933 44.7106 15.2933ZM30.5717 14.1822H44.155V7.61778H30.5717V14.1822Z" fill="black"/>
<path d="M15.4506 15.2933C15.1439 15.2933 14.895 15.0445 14.895 14.7378V3.43945C14.895 3.13278 15.1439 2.8839 15.4506 2.8839H34.7311C35.0383 2.8839 35.2867 3.13278 35.2867 3.43945V7.06223C35.2867 7.3689 35.0383 7.61778 34.7311 7.61778C34.4239 7.61778 34.1756 7.3689 34.1756 7.06223V3.99501H16.0061V14.7378C16.0061 15.045 15.7572 15.2933 15.4506 15.2933Z" fill="black"/>
<path d="M28.8889 31.7817C28.7411 31.7817 28.6 31.7233 28.4961 31.6189L22.9161 26.0383C21.2172 24.3389 21.2172 21.5745 22.9161 19.8761C24.5528 18.2389 27.1794 18.1789 28.8889 19.6978C30.5972 18.1789 33.2244 18.2389 34.8622 19.8761C36.5611 21.575 36.5611 24.3395 34.8617 26.0383L29.2817 31.6189C29.1778 31.7233 29.0367 31.7817 28.8889 31.7817ZM25.9972 19.7122C25.1655 19.7122 24.3344 20.0283 23.7017 20.6611C22.4361 21.9267 22.4361 23.9861 23.7017 25.2522L28.8889 30.4406L34.0761 25.2528C35.3417 23.9872 35.3417 21.9272 34.0767 20.6617C32.81 19.3956 30.7511 19.3961 29.485 20.6617L29.2817 20.865C29.0644 21.0817 28.7133 21.0817 28.4961 20.865L28.2928 20.6617C27.66 20.0289 26.8283 19.7122 25.9972 19.7122Z" fill="black"/>
</svg>
