<svg width="17" height="17" viewBox="0 0 17 17" fill="none" xmlns="http://www.w3.org/2000/svg">
<path d="M8.2533 3.63128V5.38238H10.0044C10.3507 5.38238 10.6893 5.27968 10.9772 5.08726C11.2652 4.89485 11.4897 4.62137 11.6222 4.3014C11.7547 3.98143 11.7894 3.62934 11.7218 3.28966C11.6543 2.94998 11.4875 2.63797 11.2426 2.39307C10.9977 2.14818 10.6857 1.9814 10.346 1.91384C10.0063 1.84627 9.65425 1.88095 9.33428 2.01348C9.0143 2.14602 8.74082 2.37046 8.54841 2.65843C8.356 2.94639 8.2533 3.28495 8.2533 3.63128V3.63128Z" stroke="black" stroke-width="1.00189" stroke-miterlimit="10" stroke-linecap="round"/>
<path d="M8.255 3.63128C8.255 4.11471 8.255 5.38238 8.255 5.38238H6.5039C6.15757 5.38238 5.81901 5.27968 5.53105 5.08726C5.24308 4.89485 5.01864 4.62137 4.8861 4.3014C4.75357 3.98143 4.71889 3.62934 4.78646 3.28966C4.85402 2.94998 5.0208 2.63797 5.26569 2.39307C5.51059 2.14818 5.8226 1.9814 6.16228 1.91384C6.50196 1.84627 6.85405 1.88095 7.17402 2.01348C7.49399 2.14602 7.76747 2.37046 7.95988 2.65843C8.1523 2.94639 8.255 3.28495 8.255 3.63128V3.63128Z" stroke="black" stroke-width="1.00189" stroke-miterlimit="10" stroke-linecap="round"/>
<path d="M13.2546 5.38092H3.25242C2.70001 5.38092 2.2522 5.82873 2.2522 6.38114V7.88146C2.2522 8.43387 2.70001 8.88168 3.25242 8.88168H13.2546C13.807 8.88168 14.2548 8.43387 14.2548 7.88146V6.38114C14.2548 5.82873 13.807 5.38092 13.2546 5.38092Z" stroke="black" stroke-width="1.00189" stroke-linecap="round" stroke-linejoin="round"/>
<path d="M13.2541 8.88159V13.3826C13.2541 13.7805 13.0961 14.1621 12.8147 14.4435C12.5333 14.7248 12.1517 14.8829 11.7538 14.8829H4.75228C4.35437 14.8829 3.97275 14.7248 3.69139 14.4435C3.41002 14.1621 3.25195 13.7805 3.25195 13.3826V8.88159" stroke="black" stroke-width="1.00189" stroke-linecap="round" stroke-linejoin="round"/>
<path d="M8.2533 5.38074V14.8828" stroke="black" stroke-width="1.00189" stroke-linecap="round" stroke-linejoin="round"/>
</svg>
