<svg width="50" height="50" viewBox="0 0 50 50" fill="none" xmlns="http://www.w3.org/2000/svg">
<g clip-path="url(#clip0_203_134)">
<path d="M30.8989 29.29H22.2222H19.1011C17.8533 29.29 16.8417 30.3017 16.8417 31.5495V32.2183V41.7945H33.1595V32.2183V31.5495C33.1589 30.3017 32.1472 29.29 30.8989 29.29Z" fill="#84D3FF" fill-opacity="0.76"/>
<path d="M46.7016 16.0611C46.7016 18.1172 45.0344 19.7844 42.9783 19.7844C40.9222 19.7844 39.255 18.1172 39.255 16.0611L36.4155 11.4511H41.5039L46.7016 16.0611Z" fill="#84D3FF" fill-opacity="0.76"/>
<path d="M18.005 11.4517L15.1655 16.0617C15.1655 18.1178 16.8327 19.785 18.8889 19.785C20.945 19.785 22.6122 18.1178 22.6122 16.0617V11.4517H18.005Z" fill="#84D3FF" fill-opacity="0.76"/>
<path d="M31.995 11.4517L34.8344 16.0617C34.8344 18.1178 33.1672 19.785 31.1111 19.785C29.055 19.785 27.3878 18.1178 27.3878 16.0617V11.4517H31.995Z" fill="#84D3FF" fill-opacity="0.76"/>
<path d="M3.29834 16.0611C3.29834 18.1172 4.96556 19.7844 7.02167 19.7844C9.07778 19.7844 10.745 18.1172 10.745 16.0611L13.5845 11.4511H8.49612L3.29834 16.0611Z" fill="#84D3FF" fill-opacity="0.76"/>
<path d="M5.47944 42.35C5.17278 42.35 4.92389 42.1017 4.92389 41.7945V22.34C4.92389 22.0333 5.17278 21.7845 5.47944 21.7845C5.78611 21.7845 6.035 22.0333 6.035 22.34V41.7945C6.035 42.1017 5.78667 42.35 5.47944 42.35Z" fill="black"/>
<path d="M44.5206 42.35C44.2134 42.35 43.965 42.1017 43.965 41.7945V22.3389C43.965 22.0322 44.2134 21.7833 44.5206 21.7833C44.8278 21.7833 45.0761 22.0322 45.0761 22.3389V41.7945C45.0761 42.1017 44.8272 42.35 44.5206 42.35Z" fill="black"/>
<path d="M49.4444 47.6772H14.0633C13.7567 47.6772 13.5078 47.4289 13.5078 47.1217C13.5078 46.8144 13.7567 46.5661 14.0633 46.5661H48.8889V43.8428C48.8889 43.02 48.2194 42.35 47.3961 42.35H2.60389C1.78056 42.35 1.11111 43.02 1.11111 43.8428V46.5661H6.46833C6.775 46.5661 7.02389 46.8144 7.02389 47.1217C7.02389 47.4289 6.775 47.6772 6.46833 47.6772H0.555556C0.248889 47.6772 0 47.4289 0 47.1217V43.8428C0 42.4072 1.16833 41.2389 2.60389 41.2389H47.3967C48.8322 41.2389 50.0006 42.4072 50.0006 43.8428V47.1217C50 47.4289 49.7517 47.6772 49.4444 47.6772Z" fill="black"/>
<path d="M31.1111 23.0122C27.435 23.0122 24.4445 20.0217 24.4445 16.3456V8.77945C24.4445 8.47278 24.6933 8.22389 25 8.22389H32.5617C32.7545 8.22389 32.9333 8.32389 33.035 8.48834L37.6956 16.0544C37.7489 16.1417 37.7778 16.2428 37.7778 16.3456C37.7778 20.0217 34.7872 23.0122 31.1111 23.0122ZM25.5556 9.335V16.3456C25.5556 19.4089 28.0478 21.9011 31.1111 21.9011C34.1233 21.9011 36.5828 19.4922 36.6645 16.4994L32.2517 9.335H25.5556Z" fill="black"/>
<path d="M43.3333 23.0122C39.7105 23.0122 36.7539 20.1083 36.6689 16.5061L32.0889 9.07112C31.9839 8.89946 31.9789 8.68446 32.0772 8.5089C32.1755 8.33335 32.3611 8.22446 32.5622 8.22446H40.9139C41.0494 8.22446 41.1805 8.27446 41.2822 8.36446L49.8128 15.9306C49.9322 16.035 50 16.1867 50 16.3456C50 20.0217 47.0094 23.0122 43.3333 23.0122ZM33.5561 9.33501L37.695 16.0539C37.7489 16.1417 37.7778 16.2428 37.7778 16.3456C37.7778 19.4089 40.27 21.9011 43.3333 21.9011C46.3144 21.9011 48.755 19.5406 48.8833 16.5906L40.7022 9.33501H33.5561Z" fill="black"/>
<path d="M18.8889 23.0122C15.2128 23.0122 12.2222 20.0217 12.2222 16.3456C12.2222 16.2428 12.2506 16.1417 12.3045 16.0544L16.965 8.48834C17.0661 8.32445 17.245 8.22389 17.4383 8.22389H25C25.3067 8.22389 25.5556 8.47278 25.5556 8.77945V16.3456C25.5556 20.0217 22.565 23.0122 18.8889 23.0122ZM13.3356 16.4994C13.4172 19.4917 15.8772 21.9011 18.8889 21.9011C21.9522 21.9011 24.4445 19.4089 24.4445 16.3456V9.335H17.7489L13.3356 16.4994Z" fill="black"/>
<path d="M6.66667 23.0122C2.99056 23.0122 0 20.0217 0 16.3456C0 16.1867 0.0683333 16.035 0.186667 15.93L8.71778 8.36389C8.81944 8.27334 8.95056 8.22389 9.08667 8.22389H17.4383C17.6394 8.22389 17.825 8.33278 17.9233 8.50834C18.0217 8.68389 18.0167 8.89945 17.9117 9.07056L13.3317 16.5056C13.2461 20.1083 10.2894 23.0122 6.66667 23.0122ZM1.11667 16.5906C1.245 19.5406 3.68556 21.9011 6.66667 21.9011C9.73 21.9011 12.2222 19.4089 12.2222 16.3456C12.2222 16.2428 12.2506 16.1417 12.3044 16.0544L16.4433 9.33556H9.29722L1.11667 16.5906Z" fill="black"/>
<path d="M49.4444 16.9011H0.555556C0.248889 16.9011 0 16.6522 0 16.3456C0 16.0389 0.248889 15.79 0.555556 15.79H49.4444C49.7517 15.79 50 16.0389 50 16.3456C50 16.6522 49.7517 16.9011 49.4444 16.9011Z" fill="black"/>
<path d="M41.0034 9.33501H9.08668C8.78002 9.33501 8.53113 9.08612 8.53113 8.77945V4.9139C8.53113 3.48501 9.69335 2.32278 11.1222 2.32278H38.9678C40.3961 2.32278 41.5589 3.48501 41.5589 4.9139V8.77945C41.5589 9.08612 41.31 9.33501 41.0034 9.33501ZM9.64224 8.2239H40.4478V4.9139C40.4478 4.09778 39.7839 3.4339 38.9678 3.4339H11.1222C10.3061 3.4339 9.64224 4.09778 9.64224 4.9139V8.2239Z" fill="black"/>
<path d="M35.9367 42.35C35.6295 42.35 35.3811 42.1017 35.3811 41.7944V28.7717C35.3811 27.8322 34.6167 27.0678 33.6772 27.0678H25.5556V30.7578C25.5556 31.065 25.3067 31.3133 25 31.3133C24.6933 31.3133 24.4445 31.065 24.4445 30.7578V26.5122C24.4445 26.205 24.6933 25.9567 25 25.9567H33.6767C35.2289 25.9567 36.4917 27.2194 36.4917 28.7717V41.7944C36.4922 42.1017 36.2433 42.35 35.9367 42.35Z" fill="black"/>
<path d="M25 42.35C24.6933 42.35 24.4445 42.1017 24.4445 41.7945V35.3811C24.4445 35.0739 24.6933 34.8256 25 34.8256C25.3067 34.8256 25.5556 35.0739 25.5556 35.3811V41.7945C25.5556 42.1017 25.3067 42.35 25 42.35Z" fill="black"/>
<path d="M27.9928 37.1767C27.6855 37.1767 27.4372 36.9283 27.4372 36.6211V35.4111C27.4372 35.1039 27.6855 34.8556 27.9928 34.8556C28.3 34.8556 28.5483 35.1039 28.5483 35.4111V36.6211C28.5483 36.9283 28.2994 37.1767 27.9928 37.1767Z" fill="black"/>
<path d="M14.0633 42.35C13.7566 42.35 13.5078 42.1017 13.5078 41.7944V28.7717C13.5078 27.2194 14.7705 25.9567 16.3228 25.9567H25C25.3066 25.9567 25.5555 26.205 25.5555 26.5122V30.7578C25.5555 31.065 25.3066 31.3133 25 31.3133C24.6933 31.3133 24.4444 31.065 24.4444 30.7578V27.0678H16.3228C15.3833 27.0678 14.6189 27.8322 14.6189 28.7717V41.7944C14.6189 42.1017 14.37 42.35 14.0633 42.35Z" fill="black"/>
<path d="M25 42.35C24.6933 42.35 24.4445 42.1017 24.4445 41.7945V35.3811C24.4445 35.0739 24.6933 34.8256 25 34.8256C25.3067 34.8256 25.5556 35.0739 25.5556 35.3811V41.7945C25.5556 42.1017 25.3067 42.35 25 42.35Z" fill="black"/>
<path d="M22.0078 37.1767C21.7011 37.1767 21.4522 36.9283 21.4522 36.6211V35.4111C21.4522 35.1039 21.7011 34.8556 22.0078 34.8556C22.3144 34.8556 22.5633 35.1039 22.5633 35.4111V36.6211C22.5633 36.9283 22.3144 37.1767 22.0078 37.1767Z" fill="black"/>
</g>
<defs>
<clipPath id="clip0_203_134">
<rect width="50" height="50" fill="white"/>
</clipPath>
</defs>
</svg>
