<svg width="50" height="50" viewBox="0 0 50 50" fill="none" xmlns="http://www.w3.org/2000/svg">
<g clip-path="url(#clip0_203_23)">
<path d="M25 40.2811C33.4395 40.2811 40.2811 33.4395 40.2811 25C40.2811 16.5605 33.4395 9.71889 25 9.71889C16.5605 9.71889 9.7189 16.5605 9.7189 25C9.7189 33.4395 16.5605 40.2811 25 40.2811Z" fill="#84D3FF" fill-opacity="0.76"/>
<path d="M25 50C23.7756 50.0006 22.5511 49.5544 21.5972 48.6628C20.5811 47.7139 19.1256 47.3817 17.7989 47.7956C15.3067 48.5756 12.6128 47.2772 11.6672 44.8428C11.1639 43.5467 9.99667 42.6161 8.62112 42.4139C6.03723 42.0333 4.17334 39.6961 4.37778 37.0933C4.48667 35.7067 3.8389 34.3622 2.68723 33.5828C0.525007 32.1194 -0.140548 29.2044 1.17278 26.9478C1.87223 25.7461 1.87223 24.2533 1.17278 23.0517C-0.140548 20.795 0.524452 17.8806 2.68723 16.4167C3.8389 15.6372 4.48667 14.2922 4.37778 12.9061C4.17334 10.3028 6.03723 7.96556 8.62112 7.58556C9.99667 7.38333 11.1633 6.45222 11.6672 5.15611C12.6133 2.72222 15.3067 1.42611 17.7989 2.20333C19.125 2.61778 20.5811 2.28556 21.5972 1.33667C23.5056 -0.445556 26.4961 -0.445556 28.4028 1.33667C29.4195 2.28611 30.8756 2.61833 32.2011 2.20333C34.6939 1.42611 37.3867 2.72222 38.3328 5.15667C38.8356 6.45278 40.0033 7.38333 41.3789 7.58611C43.9622 7.96611 45.8261 10.3033 45.6222 12.9067C45.5133 14.2928 46.1611 15.6378 47.3128 16.4172C49.475 17.8806 50.1406 20.795 48.8267 23.0522C48.1278 24.2539 48.1278 25.7472 48.8267 26.9483C50.1406 29.205 49.475 32.12 47.3128 33.5833C46.1611 34.3628 45.5133 35.7072 45.6222 37.0939C45.8256 39.6978 43.9622 42.035 41.3789 42.4144C40.0033 42.6167 38.8361 43.5478 38.3322 44.8433C37.3867 47.2772 34.6945 48.5756 32.2011 47.7961C30.8739 47.3828 29.4189 47.7144 28.4028 48.6633C27.4489 49.5544 26.2245 50 25 50ZM18.9483 46.51C20.195 46.51 21.42 46.9772 22.3556 47.8517C23.8383 49.2367 26.1617 49.2367 27.6439 47.8517C28.9511 46.6294 30.825 46.2022 32.5322 46.7361C34.4728 47.34 36.5622 46.3328 37.2961 44.4411C37.9445 42.7733 39.4467 41.5756 41.2167 41.3156C43.2239 41.0206 44.6722 39.2039 44.5139 37.1811C44.3739 35.3967 45.2072 33.6656 46.6894 32.6633C48.37 31.5261 48.8867 29.2617 47.8661 27.5078C46.9667 25.9617 46.9667 24.04 47.8661 22.4939C48.8867 20.74 48.37 18.4756 46.6894 17.3383C45.2072 16.3356 44.3739 14.6044 44.5139 12.8206C44.6722 10.7978 43.2239 8.98167 41.2167 8.68611C39.4467 8.42556 37.9439 7.22778 37.2961 5.56C36.5617 3.66889 34.4728 2.66111 32.5322 3.26556C30.825 3.79833 28.9511 3.37111 27.6439 2.15C26.1611 0.764444 23.8378 0.765 22.3556 2.15C21.0478 3.37167 19.1756 3.79889 17.4672 3.26556C15.53 2.66 13.4372 3.66889 12.7028 5.56C12.055 7.22778 10.5528 8.42556 8.78278 8.68611C6.77501 8.98167 5.32667 10.7978 5.48612 12.8206C5.62612 14.6044 4.79223 16.3356 3.31056 17.3383C1.63001 18.4756 1.11334 20.74 2.1339 22.4939C3.0339 24.0406 3.0339 25.9622 2.1339 27.5078C1.11334 29.2617 1.63056 31.5261 3.31056 32.6633C4.79278 33.6656 5.62612 35.3967 5.48612 37.1811C5.32723 39.2039 6.77556 41.02 8.78278 41.3156C10.5528 41.5756 12.055 42.7739 12.7028 44.4411C13.4378 46.3328 15.5311 47.3389 17.4672 46.7361C17.9533 46.5833 18.4528 46.51 18.9483 46.51Z" fill="black"/>
<path d="M25 43.615C20.3839 43.615 15.9561 41.9133 12.5322 38.8228C12.3045 38.6172 12.2867 38.2661 12.4922 38.0383C12.6978 37.8106 13.0483 37.7922 13.2767 37.9983C16.4961 40.9039 20.6595 42.5039 25 42.5039C34.6517 42.5039 42.5039 34.6517 42.5039 25C42.5039 15.3483 34.6517 7.49611 25 7.49611C15.3483 7.49611 7.49612 15.3483 7.49612 25C7.49612 27.3894 7.9689 29.7056 8.90112 31.8828C9.02168 32.165 8.89112 32.4917 8.6089 32.6122C8.32668 32.7344 8.00056 32.6017 7.87945 32.32C6.88779 30.0033 6.38501 27.5406 6.38501 24.9994C6.38501 14.735 14.7356 6.38445 25 6.38445C35.2645 6.38445 43.615 14.735 43.615 24.9994C43.615 35.2644 35.2645 43.615 25 43.615Z" fill="black"/>
<path d="M17.5695 29.7812C17.3811 29.7812 17.2006 29.6845 17.0972 29.5184L12.8795 22.7234V29.2257C12.8795 29.5329 12.6306 29.7812 12.3239 29.7812C12.0172 29.7812 11.7683 29.5329 11.7683 29.2257V20.7745C11.7683 20.5262 11.9328 20.3079 12.1717 20.2401C12.4111 20.1712 12.665 20.2707 12.7961 20.4818L17.0139 27.2768V20.7745C17.0139 20.4679 17.2628 20.219 17.5695 20.219C17.8761 20.219 18.125 20.4679 18.125 20.7745V29.2257C18.125 29.4734 17.9606 29.6918 17.7217 29.7601C17.6711 29.7745 17.62 29.7812 17.5695 29.7812Z" fill="black"/>
<path d="M24.9695 29.7811H21.2228C20.9161 29.7811 20.6672 29.5328 20.6672 29.2256V20.7744C20.6672 20.4678 20.9161 20.2189 21.2228 20.2189H24.9695C25.2761 20.2189 25.525 20.4678 25.525 20.7744C25.525 21.0811 25.2761 21.33 24.9695 21.33H21.7789V28.6694H24.9695C25.2761 28.6694 25.525 28.9178 25.525 29.225C25.5256 29.5328 25.2767 29.7811 24.9695 29.7811Z" fill="black"/>
<path d="M23.6733 25.5556H21.2228C20.9161 25.5556 20.6672 25.3067 20.6672 25C20.6672 24.6933 20.9161 24.4444 21.2228 24.4444H23.6733C23.98 24.4444 24.2289 24.6933 24.2289 25C24.2289 25.3067 23.9806 25.5556 23.6733 25.5556Z" fill="black"/>
<path d="M35.4583 29.7811C35.2345 29.7811 35.0306 29.6467 34.9445 29.4372L33.03 24.7911L31.1156 29.4372C31.0245 29.6583 30.8022 29.7894 30.5644 29.78C30.3261 29.7639 30.125 29.5972 30.0645 29.3667L27.8472 20.9156C27.7689 20.6189 27.9467 20.315 28.2433 20.2372C28.54 20.1583 28.8439 20.3367 28.9217 20.6339L30.7189 27.4828L32.5161 23.1217C32.6017 22.9133 32.805 22.7778 33.03 22.7778C33.255 22.7778 33.4583 22.9139 33.5439 23.1217L35.3411 27.4828L37.1389 20.6333C37.2167 20.3367 37.5211 20.1583 37.8172 20.2367C38.1139 20.3144 38.2917 20.6183 38.2133 20.915L35.9956 29.3667C35.9356 29.5972 35.7339 29.7639 35.4956 29.78C35.4833 29.7806 35.4711 29.7811 35.4583 29.7811Z" fill="black"/>
<path d="M32.7589 34.4467H17.2411C16.9345 34.4467 16.6856 34.1983 16.6856 33.8911C16.6856 33.5839 16.9345 33.3356 17.2411 33.3356H32.7589C33.0661 33.3356 33.3145 33.5839 33.3145 33.8911C33.3145 34.1983 33.0661 34.4467 32.7589 34.4467Z" fill="black"/>
<path d="M32.7589 16.665H17.2411C16.9345 16.665 16.6856 16.4161 16.6856 16.1094C16.6856 15.8028 16.9345 15.5539 17.2411 15.5539H32.7589C33.0661 15.5539 33.3145 15.8028 33.3145 16.1094C33.3145 16.4161 33.0661 16.665 32.7589 16.665Z" fill="black"/>
</g>
<defs>
<clipPath id="clip0_203_23">
<rect width="50" height="50" fill="white"/>
</clipPath>
</defs>
</svg>
