<svg width="50" height="50" viewBox="0 0 50 50" fill="none" xmlns="http://www.w3.org/2000/svg">
<g clip-path="url(#clip0_203_452)">
<path d="M34.5028 15.455H12.9239V31.6056H34.5028V15.455Z" fill="#84D3FF" fill-opacity="0.76"/>
<path d="M36.725 34.3833H24.7861C24.4795 34.3833 24.2306 34.135 24.2306 33.8278C24.2306 33.5206 24.4795 33.2722 24.7861 33.2722H36.1695V13.7889H11.2572V15.7428C11.2572 16.0494 11.0083 16.2983 10.7017 16.2983C10.395 16.2983 10.1461 16.0494 10.1461 15.7428V13.2333C10.1461 12.9267 10.395 12.6778 10.7017 12.6778H36.725C37.0322 12.6778 37.2806 12.9267 37.2806 13.2333V33.8278C37.2806 34.1344 37.0322 34.3833 36.725 34.3833Z" fill="black"/>
<path d="M15.3795 34.3833H10.7017C10.395 34.3833 10.1461 34.135 10.1461 33.8278V31.0294C10.1461 30.7222 10.395 30.4739 10.7017 30.4739C11.0083 30.4739 11.2572 30.7222 11.2572 31.0294V33.2722H15.3795C15.6861 33.2722 15.935 33.5206 15.935 33.8278C15.935 34.135 15.6861 34.3833 15.3795 34.3833Z" fill="black"/>
<path d="M49.4444 34.3833C49.1389 34.3833 48.8911 34.1372 48.8889 33.8317L48.8361 25.9778L43.1405 19.9994H37.2805V33.2722H40.4389C40.7461 33.2722 40.9944 33.5206 40.9944 33.8278C40.9944 34.135 40.7461 34.3833 40.4389 34.3833H36.725C36.4178 34.3833 36.1694 34.135 36.1694 33.8278V19.4439C36.1694 19.1372 36.4178 18.8883 36.725 18.8883H43.3789C43.5305 18.8883 43.6761 18.9506 43.7811 19.0606L49.7922 25.3706C49.89 25.4733 49.9444 25.6089 49.9455 25.75L50 33.8239C50.0022 34.1311 49.755 34.3811 49.4483 34.3833C49.4472 34.3833 49.4455 34.3833 49.4444 34.3833Z" fill="black"/>
<path d="M44.94 26.3089H40.2372C39.93 26.3089 39.6817 26.0606 39.6817 25.7533V19.4439C39.6817 19.1372 39.93 18.8883 40.2372 18.8883C40.5444 18.8883 40.7928 19.1372 40.7928 19.4439V25.1983H44.94C45.2472 25.1983 45.4956 25.4472 45.4956 25.7539C45.4956 26.0606 45.2467 26.3089 44.94 26.3089Z" fill="black"/>
<path d="M18.3194 37.3228C16.3922 37.3228 14.8239 35.755 14.8239 33.8278C14.8239 31.9006 16.3917 30.3328 18.3194 30.3328C20.2467 30.3328 21.8144 31.9006 21.8144 33.8278C21.8144 35.755 20.2461 37.3228 18.3194 37.3228ZM18.3194 31.4439C17.005 31.4439 15.935 32.5133 15.935 33.8278C15.935 35.1422 17.0044 36.2117 18.3194 36.2117C19.6344 36.2117 20.7033 35.1422 20.7033 33.8278C20.7033 32.5133 19.6339 31.4439 18.3194 31.4439Z" fill="black"/>
<path d="M43.3789 37.3228C41.4511 37.3228 39.8833 35.755 39.8833 33.8278C39.8833 31.9006 41.4511 30.3328 43.3789 30.3328C45.3061 30.3328 46.8739 31.9006 46.8739 33.8278C46.8739 35.755 45.3061 37.3228 43.3789 37.3228ZM43.3789 31.4439C42.0644 31.4439 40.9944 32.5133 40.9944 33.8278C40.9944 35.1422 42.0644 36.2117 43.3789 36.2117C44.6933 36.2117 45.7628 35.1422 45.7628 33.8278C45.7628 32.5133 44.6933 31.4439 43.3789 31.4439Z" fill="black"/>
<path d="M23.7133 24.0856H0.555556C0.248889 24.0856 0 23.8367 0 23.53C0 23.2233 0.248889 22.9744 0.555556 22.9744H23.7133C24.02 22.9744 24.2689 23.2233 24.2689 23.53C24.2689 23.8367 24.02 24.0856 23.7133 24.0856Z" fill="black"/>
<path d="M23.7133 19.3822H6.43501C6.12834 19.3822 5.87946 19.1333 5.87946 18.8267C5.87946 18.52 6.12834 18.2711 6.43501 18.2711H23.7139C24.0206 18.2711 24.2695 18.52 24.2695 18.8267C24.2695 19.1333 24.02 19.3822 23.7133 19.3822Z" fill="black"/>
<path d="M23.7133 28.7889H6.43501C6.12834 28.7889 5.87946 28.5406 5.87946 28.2333C5.87946 27.9261 6.12834 27.6778 6.43501 27.6778H23.7139C24.0206 27.6778 24.2695 27.9261 24.2695 28.2333C24.2695 28.5406 24.02 28.7889 23.7133 28.7889Z" fill="black"/>
</g>
<defs>
<clipPath id="clip0_203_452">
<rect width="50" height="50" fill="white"/>
</clipPath>
</defs>
</svg>
