<svg width="50" height="50" viewBox="0 0 50 50" fill="none" xmlns="http://www.w3.org/2000/svg">
<path d="M14.9028 27.9211H44.4844C45.6894 27.9211 46.6666 28.8978 46.6666 30.1033V38.3767C46.6666 39.5817 45.69 40.5589 44.4844 40.5589H5.51554C4.30998 40.5589 3.33331 39.5817 3.33331 38.3767V30.1033C3.33331 28.8983 4.30998 27.9211 5.51554 27.9211H8.80998H14.9028Z" fill="#84D3FF" fill-opacity="0.76"/>
<path d="M47.2622 43.8922H2.73778C1.22778 43.8922 0 42.6639 0 41.1544V27.3256C0 25.8161 1.22778 24.5883 2.73778 24.5883H8.81C9.11667 24.5883 9.36556 24.8372 9.36556 25.1439C9.36556 25.4506 9.11667 25.6994 8.81 25.6994H2.73778C1.84056 25.6994 1.11111 26.4283 1.11111 27.3256V41.155C1.11111 42.0517 1.84056 42.7817 2.73778 42.7817H47.2628C48.1594 42.7817 48.8894 42.0522 48.8894 41.155V27.3256C48.8894 26.4289 48.16 25.6994 47.2628 25.6994H14.9028C14.5961 25.6994 14.3472 25.4506 14.3472 25.1439C14.3472 24.8372 14.5961 24.5883 14.9028 24.5883H47.2622C48.7717 24.5883 50 25.8161 50 27.3256V41.155C50 42.6639 48.7717 43.8922 47.2622 43.8922Z" fill="black"/>
<path d="M26.0928 39.02H22.3472C22.0406 39.02 21.7917 38.7717 21.7917 38.4644V30.015C21.7917 29.7078 22.0406 29.4594 22.3472 29.4594C22.6539 29.4594 22.9028 29.7078 22.9028 30.015V37.9089H26.0928C26.4 37.9089 26.6484 38.1572 26.6484 38.4644C26.6484 38.7717 26.4 39.02 26.0928 39.02Z" fill="black"/>
<path d="M8.65502 39.02H7.05447C5.74391 39.02 4.67725 37.9533 4.67725 36.6428V31.8372C4.67725 30.5267 5.74391 29.46 7.05447 29.46H8.65502C9.96558 29.46 11.0322 30.5267 11.0322 31.8372V36.6428C11.0317 37.9533 9.96558 39.02 8.65502 39.02ZM7.05391 30.5705C6.35558 30.5705 5.7878 31.1383 5.7878 31.8367V36.6422C5.7878 37.3405 6.35558 37.9083 7.05391 37.9083H8.65447C9.35225 37.9083 9.92058 37.3405 9.92058 36.6422V31.8367C9.92058 31.1383 9.3528 30.5705 8.65447 30.5705H7.05391Z" fill="black"/>
<path d="M19.0361 39.02C18.8478 39.02 18.6672 38.9233 18.5639 38.7572L14.3472 31.9633V38.4639C14.3472 38.7711 14.0983 39.0194 13.7916 39.0194C13.485 39.0194 13.2361 38.7711 13.2361 38.4639V30.015C13.2361 29.7672 13.4005 29.5489 13.6394 29.4806C13.8778 29.4139 14.1327 29.5111 14.2639 29.7222L18.4805 36.5161V30.015C18.4805 29.7078 18.7294 29.4594 19.0361 29.4594C19.3428 29.4594 19.5916 29.7078 19.5916 30.015V38.4644C19.5916 38.7122 19.4272 38.9306 19.1883 38.9989C19.1378 39.0133 19.0866 39.02 19.0361 39.02Z" fill="black"/>
<path d="M28.9611 39.02C28.6539 39.02 28.4056 38.7717 28.4056 38.4644V30.015C28.4056 29.7078 28.6539 29.4594 28.9611 29.4594C29.2684 29.4594 29.5167 29.7078 29.5167 30.015V38.4644C29.5167 38.7717 29.2684 39.02 28.9611 39.02Z" fill="black"/>
<path d="M37.7111 39.02C37.5222 39.02 37.3422 38.9233 37.2389 38.7572L33.0222 31.9633V38.4639C33.0222 38.7711 32.7739 39.0194 32.4667 39.0194C32.1595 39.0194 31.9111 38.7711 31.9111 38.4639V30.015C31.9111 29.7672 32.0756 29.5489 32.3145 29.4806C32.5528 29.4128 32.8084 29.5117 32.9389 29.7222L37.1556 36.5161V30.015C37.1556 29.7078 37.4039 29.4594 37.7111 29.4594C38.0184 29.4594 38.2667 29.7078 38.2667 30.015V38.4644C38.2667 38.7122 38.1022 38.9306 37.8634 38.9989C37.8128 39.0133 37.7617 39.02 37.7111 39.02Z" fill="black"/>
<path d="M44.7678 39.02H41.0222C40.715 39.02 40.4667 38.7717 40.4667 38.4644V30.015C40.4667 29.7078 40.715 29.4594 41.0222 29.4594H44.7678C45.075 29.4594 45.3233 29.7078 45.3233 30.015C45.3233 30.3222 45.075 30.5706 44.7678 30.5706H41.5778V37.9089H44.7678C45.075 37.9089 45.3233 38.1572 45.3233 38.4644C45.3233 38.7717 45.075 39.02 44.7678 39.02Z" fill="black"/>
<path d="M43.4722 34.7956H41.0222C40.715 34.7956 40.4667 34.5472 40.4667 34.24C40.4667 33.9328 40.715 33.6844 41.0222 33.6844H43.4722C43.7795 33.6844 44.0278 33.9328 44.0278 34.24C44.0278 34.5472 43.7795 34.7956 43.4722 34.7956Z" fill="black"/>
<path d="M40.7894 17.7228H31.3978C31.1539 17.7228 30.9378 17.5633 30.8666 17.3294L27.7739 7.21833H24.9216C24.615 7.21833 24.3661 6.96945 24.3661 6.66278C24.3661 6.35611 24.615 6.10722 24.9216 6.10722H28.1855C28.4294 6.10722 28.6455 6.26667 28.7166 6.50056L31.8094 16.6117H40.4211L43.0439 10.37H34.4C34.0928 10.37 33.8444 10.1211 33.8444 9.81445C33.8444 9.50778 34.0928 9.25889 34.4 9.25889H43.8794C44.0655 9.25889 44.2389 9.35167 44.3422 9.50722C44.4455 9.66222 44.4639 9.85833 44.3916 10.0294L41.3016 17.3822C41.215 17.5889 41.0128 17.7228 40.7894 17.7228Z" fill="black"/>
<path d="M31.2739 22.8339C30.2161 22.8339 29.355 21.9733 29.355 20.915C29.355 19.8572 30.2161 18.9961 31.2739 18.9961C32.3316 18.9961 33.1922 19.8567 33.1922 20.915C33.1922 21.9733 32.3316 22.8339 31.2739 22.8339ZM31.2739 20.1072C30.8283 20.1072 30.4661 20.4694 30.4661 20.915C30.4661 21.3606 30.8283 21.7228 31.2739 21.7228C31.7189 21.7228 32.0811 21.3606 32.0811 20.915C32.0811 20.4694 31.7189 20.1072 31.2739 20.1072Z" fill="black"/>
<path d="M40.6039 22.8339C39.5461 22.8339 38.6855 21.9733 38.6855 20.915C38.6855 19.8572 39.5461 18.9961 40.6039 18.9961C41.6617 18.9961 42.5228 19.8567 42.5228 20.915C42.5228 21.9733 41.6617 22.8339 40.6039 22.8339ZM40.6039 20.1072C40.1589 20.1072 39.7967 20.4694 39.7967 20.915C39.7967 21.3606 40.1589 21.7228 40.6039 21.7228C41.0494 21.7228 41.4117 21.3606 41.4117 20.915C41.4117 20.4694 41.0494 20.1072 40.6039 20.1072Z" fill="black"/>
<path d="M24.2306 17.7228H10.5656C10.2589 17.7228 10.01 17.4739 10.01 17.1672C10.01 16.8606 10.2589 16.6117 10.5656 16.6117H24.2306C24.5372 16.6117 24.7861 16.8606 24.7861 17.1672C24.7861 17.4739 24.5372 17.7228 24.2306 17.7228Z" fill="black"/>
<path d="M22.9511 12.4711H6.12111C5.81444 12.4711 5.56555 12.2222 5.56555 11.9156C5.56555 11.6089 5.81444 11.36 6.12111 11.36H22.9511C23.2578 11.36 23.5067 11.6089 23.5067 11.9156C23.5067 12.2222 23.2578 12.4711 22.9511 12.4711Z" fill="black"/>
</svg>
