<svg width="50" height="50" viewBox="0 0 50 50" fill="none" xmlns="http://www.w3.org/2000/svg">
<g clip-path="url(#clip0_203_470)">
<path d="M25 40.2811C33.4395 40.2811 40.2811 33.4395 40.2811 25C40.2811 16.5605 33.4395 9.71889 25 9.71889C16.5605 9.71889 9.7189 16.5605 9.7189 25C9.7189 33.4395 16.5605 40.2811 25 40.2811Z" fill="#84D3FF" fill-opacity="0.76"/>
<path d="M19.175 36.5433C19.0872 36.5433 18.9983 36.5228 18.9156 36.4789C18.6445 36.335 18.5411 35.9989 18.685 35.7272L30.3345 13.7522C30.4783 13.4811 30.8145 13.3778 31.0861 13.5217C31.3567 13.665 31.4606 14.0017 31.3167 14.2728L19.6667 36.2483C19.5667 36.4356 19.3739 36.5433 19.175 36.5433Z" fill="black"/>
<path d="M19.1555 24.3983C17.1672 24.3983 15.5494 22.7805 15.5494 20.7917V17.0633C15.5494 15.075 17.1672 13.4572 19.1555 13.4572C21.1439 13.4572 22.7622 15.075 22.7622 17.0633V20.7917C22.7617 22.78 21.1439 24.3983 19.1555 24.3983ZM19.1555 14.5683C17.78 14.5683 16.6605 15.6878 16.6605 17.0633V20.7917C16.6605 22.1678 17.78 23.2867 19.1555 23.2867C20.5317 23.2867 21.6505 22.1672 21.6505 20.7917V17.0633C21.6505 15.6872 20.5311 14.5683 19.1555 14.5683Z" fill="black"/>
<path d="M30.8445 36.5433C28.8561 36.5433 27.2383 34.9255 27.2383 32.9367V29.2083C27.2383 27.2194 28.8561 25.6017 30.8445 25.6017C32.8333 25.6017 34.4511 27.2194 34.4511 29.2083V32.9367C34.4511 34.9255 32.8333 36.5433 30.8445 36.5433ZM30.8445 26.7128C29.4689 26.7128 28.35 27.8322 28.35 29.2078V32.9361C28.35 34.3117 29.4689 35.4311 30.8445 35.4311C32.22 35.4311 33.3395 34.3117 33.3395 32.9361V29.2078C33.3395 27.8328 32.22 26.7128 30.8445 26.7128Z" fill="black"/>
<path d="M25 50C23.7756 50.0006 22.5511 49.5544 21.5972 48.6628C20.5811 47.7139 19.1256 47.3817 17.7989 47.7956C15.3067 48.5756 12.6128 47.2772 11.6672 44.8428C11.1639 43.5467 9.99667 42.6161 8.62112 42.4139C6.03723 42.0333 4.17334 39.6961 4.37779 37.0933C4.48667 35.7067 3.8389 34.3622 2.68723 33.5828C0.525007 32.1194 -0.140548 29.2044 1.17279 26.9478C1.87223 25.7461 1.87223 24.2533 1.17279 23.0517C-0.140548 20.795 0.524452 17.8806 2.68723 16.4167C3.8389 15.6372 4.48667 14.2922 4.37779 12.9061C4.17334 10.3028 6.03723 7.96556 8.62112 7.58556C9.99667 7.38333 11.1633 6.45222 11.6672 5.15611C12.6133 2.72222 15.3067 1.42611 17.7989 2.20333C19.125 2.61778 20.5811 2.28556 21.5972 1.33667C23.5056 -0.445556 26.4961 -0.445556 28.4028 1.33667C29.4195 2.28611 30.8756 2.61833 32.2011 2.20333C34.6945 1.42611 37.3872 2.72278 38.3333 5.15667C38.8361 6.45278 40.0039 7.38333 41.3795 7.58611C43.9628 7.96611 45.8267 10.3033 45.6228 12.9067C45.5139 14.2928 46.1617 15.6378 47.3133 16.4172C49.4756 17.8806 50.1411 20.795 48.8272 23.0522C48.1283 24.2539 48.1283 25.7472 48.8272 26.9483C50.1411 29.205 49.4756 32.12 47.3133 33.5833C46.1617 34.3628 45.5139 35.7072 45.6228 37.0939C45.8261 39.6978 43.9628 42.035 41.3795 42.4144C40.0039 42.6167 38.8367 43.5478 38.3328 44.8433C37.3872 47.2772 34.695 48.5756 32.2017 47.7961C30.8745 47.3828 29.4195 47.7144 28.4033 48.6633C27.4489 49.5544 26.2245 50 25 50ZM18.9489 46.5094C20.1956 46.5094 21.4206 46.9767 22.3561 47.8511C23.8389 49.2361 26.1622 49.2361 27.6445 47.8511C28.9517 46.6289 30.8256 46.2017 32.5328 46.7356C34.4733 47.3394 36.5628 46.3322 37.2967 44.4406C37.945 42.7728 39.4472 41.575 41.2172 41.315C43.2245 41.02 44.6728 39.2033 44.5145 37.1806C44.3745 35.3961 45.2078 33.665 46.69 32.6628C48.3706 31.5256 48.8872 29.2611 47.8667 27.5072C46.9672 25.9611 46.9672 24.0394 47.8667 22.4933C48.8872 20.7394 48.3706 18.475 46.69 17.3378C45.2078 16.335 44.3745 14.6039 44.5145 12.82C44.6728 10.7972 43.2245 8.98111 41.2172 8.68556C39.4472 8.425 37.9445 7.22722 37.2967 5.55944C36.5622 3.66833 34.4733 2.66056 32.5328 3.265C30.8256 3.79778 28.9517 3.37056 27.6445 2.14944C26.1617 0.763889 23.8383 0.764444 22.3561 2.14944C21.0483 3.37111 19.1761 3.79833 17.4678 3.265C15.5306 2.65944 13.4378 3.66833 12.7033 5.55944C12.0556 7.22722 10.5533 8.425 8.78334 8.68556C6.77556 8.98111 5.32723 10.7972 5.48667 12.82C5.62667 14.6039 4.79279 16.335 3.31112 17.3378C1.63056 18.475 1.1139 20.7394 2.13445 22.4933C3.03445 24.04 3.03445 25.9617 2.13445 27.5072C1.1139 29.2611 1.63112 31.5256 3.31112 32.6628C4.79334 33.665 5.62667 35.3961 5.48667 37.1806C5.32779 39.2033 6.77612 41.0194 8.78334 41.315C10.5533 41.575 12.0556 42.7733 12.7033 44.4406C13.4383 46.3322 15.5317 47.3383 17.4678 46.7356C17.9533 46.5833 18.4528 46.5094 18.9489 46.5094Z" fill="black"/>
<path d="M25 43.615C20.3839 43.615 15.9561 41.9133 12.5322 38.8228C12.3045 38.6172 12.2867 38.2661 12.4922 38.0383C12.6978 37.8106 13.0483 37.7922 13.2767 37.9983C16.4961 40.9039 20.6595 42.5039 25 42.5039C34.6517 42.5039 42.5039 34.6517 42.5039 25C42.5039 15.3483 34.6517 7.49611 25 7.49611C15.3483 7.49611 7.49612 15.3483 7.49612 25C7.49612 27.3894 7.9689 29.7056 8.90112 31.8828C9.02168 32.165 8.89112 32.4917 8.6089 32.6122C8.32668 32.7344 8.00056 32.6017 7.87945 32.32C6.88779 30.0033 6.38501 27.5406 6.38501 24.9994C6.38501 14.735 14.7356 6.38445 25 6.38445C35.2645 6.38445 43.615 14.735 43.615 24.9994C43.6156 35.2644 35.2645 43.615 25 43.615Z" fill="black"/>
</g>
<defs>
<clipPath id="clip0_203_470">
<rect width="50" height="50" fill="white"/>
</clipPath>
</defs>
</svg>
