<svg width="50" height="50" viewBox="0 0 50 50" fill="none" xmlns="http://www.w3.org/2000/svg">
<g clip-path="url(#clip0_203_536)">
<path d="M44.4844 45.3978H5.51555C5.01111 45.3978 4.60222 44.9889 4.60222 44.4844V5.51556C4.60222 5.01111 5.01111 4.60222 5.51555 4.60222H44.4844C44.9889 4.60222 45.3978 5.01111 45.3978 5.51556V44.4844C45.3978 44.9889 44.9889 45.3978 44.4844 45.3978Z" fill="#84D3FF" fill-opacity="0.76"/>
<path d="M49.4444 40.3283C49.1372 40.3283 48.8889 40.08 48.8889 39.7728V1.11111H31.7856C31.4783 1.11111 31.23 0.862222 31.23 0.555556C31.23 0.248889 31.4783 0 31.7856 0H49.4444C49.7517 0 50 0.248889 50 0.555556V39.7728C50 40.08 49.7517 40.3283 49.4444 40.3283Z" fill="black"/>
<path d="M39.8361 50H0.555556C0.248889 50 0 49.7517 0 49.4444V0.555556C0 0.248889 0.248889 0 0.555556 0H12.6594C12.9661 0 13.215 0.248889 13.215 0.555556C13.215 0.862222 12.9661 1.11111 12.6594 1.11111H1.11111V48.8889H39.8361C40.1433 48.8889 40.3917 49.1372 40.3917 49.4444C40.3917 49.7517 40.1433 50 39.8361 50Z" fill="black"/>
<path d="M31.7856 14.6817C31.6683 14.6817 31.5522 14.645 31.4544 14.5722L25 9.78L18.5461 14.5722C18.3778 14.6983 18.1528 14.7172 17.9656 14.6228C17.7778 14.5283 17.6594 14.3361 17.6594 14.1261V0.555556C17.6594 0.248889 17.9083 0 18.215 0H25C25.3067 0 25.5556 0.248889 25.5556 0.555556C25.5556 0.862222 25.3067 1.11111 25 1.11111H18.7706V13.0217L24.6689 8.64222C24.8656 8.49611 25.1344 8.49611 25.3311 8.64222L31.23 13.0217V0.555556C31.23 0.248889 31.4783 0 31.7856 0C32.0928 0 32.3411 0.248889 32.3411 0.555556V14.1261C32.3411 14.3361 32.2228 14.5283 32.035 14.6228C31.9561 14.6622 31.8706 14.6817 31.7856 14.6817Z" fill="black"/>
<path d="M16.9889 38.0861H7.76777C7.46111 38.0861 7.21222 37.8378 7.21222 37.5306C7.21222 37.2233 7.46111 36.975 7.76777 36.975H16.9889C17.2956 36.975 17.5444 37.2233 17.5444 37.5306C17.5444 37.8378 17.2956 38.0861 16.9889 38.0861Z" fill="black"/>
<path d="M16.9889 43.1239H7.76777C7.46111 43.1239 7.21222 42.8756 7.21222 42.5683C7.21222 42.2611 7.46111 42.0128 7.76777 42.0128H16.9889C17.2956 42.0128 17.5444 42.2611 17.5444 42.5683C17.5444 42.8756 17.2956 43.1239 16.9889 43.1239Z" fill="black"/>
<path d="M32.3206 38.1828C32.0272 38.1828 31.7817 37.9528 31.7661 37.6561C31.7506 37.3494 31.9861 37.0883 32.2922 37.0722C33.7606 36.9967 35.1628 36.4028 36.2417 35.4006C37.4717 34.2578 38.1828 32.705 38.2439 31.0278C38.3056 29.35 37.7106 27.7494 36.5678 26.5194C35.425 25.29 33.8717 24.5783 32.195 24.5167C30.5139 24.4639 28.9167 25.0506 27.6867 26.1928C25.1483 28.5511 25.0017 32.5356 27.36 35.0739C27.5689 35.2983 27.5561 35.65 27.3311 35.8589C27.1072 36.0667 26.7561 36.0556 26.5461 35.83C23.7706 32.8428 23.9428 28.1544 26.93 25.3783C28.3767 24.0344 30.2478 23.3317 32.2356 23.4056C34.2094 23.4783 36.0372 24.315 37.3817 25.7622C38.7261 27.2094 39.4272 29.0933 39.3544 31.0678C39.2817 33.0417 38.4444 34.8694 36.9978 36.2139C35.7283 37.3939 34.0772 38.0922 32.3494 38.1817C32.34 38.1828 32.33 38.1828 32.3206 38.1828Z" fill="black"/>
<path d="M47.2661 50C47.2322 50 47.1983 49.9994 47.1633 49.9983C46.4333 49.9711 45.7572 49.6622 45.2594 49.1267L37.2278 40.4822C32.8961 42.8361 27.3878 41.99 23.9683 38.3872C19.9556 34.1578 19.9861 27.3161 24.0356 23.1367C26.14 20.9644 28.95 19.7722 31.9589 19.7722C31.9983 19.7722 32.0383 19.7722 32.0783 19.7728C35.1339 19.805 37.9622 21.055 40.0411 23.2928C43.4606 26.9733 43.935 32.5656 41.2372 36.7572L49.2678 45.4017C49.7656 45.9372 50.0244 46.6339 49.9978 47.3639C49.9706 48.0944 49.6617 48.7706 49.1261 49.2678C48.6167 49.7422 47.9589 50 47.2661 50ZM37.3356 39.2256C37.4861 39.2256 37.6344 39.2861 37.7422 39.4028L46.0733 48.37C46.3689 48.6878 46.7706 48.8717 47.2039 48.8878C47.6344 48.8967 48.0511 48.75 48.37 48.4544C48.6878 48.1594 48.8717 47.7578 48.8878 47.3244C48.9033 46.8906 48.75 46.4767 48.4544 46.1583L40.1239 37.1911C39.9456 36.9989 39.9256 36.7078 40.0767 36.4933C42.7517 32.6917 42.395 27.4583 39.2278 24.0494C37.3583 22.0367 34.815 20.9128 32.0667 20.8839C29.3322 20.8561 26.7522 21.93 24.8339 23.9094C21.1928 27.6672 21.1667 33.8183 24.775 37.6217C27.9428 40.96 33.1056 41.6678 37.05 39.3044C37.1389 39.2517 37.2372 39.2256 37.3356 39.2256Z" fill="black"/>
</g>
<defs>
<clipPath id="clip0_203_536">
<rect width="50" height="50" fill="white"/>
</clipPath>
</defs>
</svg>
