<svg width="50" height="50" viewBox="0 0 50 50" fill="none" xmlns="http://www.w3.org/2000/svg">
<path d="M29.5016 13.4622H38.155V42.7033C38.155 44.8922 36.3805 46.6661 34.1922 46.6661H15.8077C13.6189 46.6661 11.845 44.8917 11.845 42.7033V13.4622H15.0333H29.5016Z" fill="#84D3FF" fill-opacity="0.76"/>
<path d="M36.97 50H13.0305C10.5389 50 8.51221 47.9733 8.51221 45.4811V10.6844C8.51221 10.3778 8.7611 10.1289 9.06776 10.1289H12.2555C12.5622 10.1289 12.8111 10.3778 12.8111 10.6844C12.8111 10.9911 12.5622 11.24 12.2555 11.24H9.62332V45.4811C9.62332 47.36 11.1517 48.8889 13.0305 48.8889H36.97C38.8489 48.8889 40.3772 47.36 40.3772 45.4811V11.24H32.28C31.9728 11.24 31.7244 10.9911 31.7244 10.6844C31.7244 10.3778 31.9728 10.1289 32.28 10.1289H40.9328C41.24 10.1289 41.4883 10.3778 41.4883 10.6844V45.4811C41.4883 47.9733 39.4611 50 36.97 50Z" fill="black"/>
<path d="M32.2317 21.7233H9.06721C8.76055 21.7233 8.51166 21.4744 8.51166 21.1678C8.51166 20.8611 8.76055 20.6122 9.06721 20.6122H32.2311C32.5383 20.6122 32.7867 20.8611 32.7867 21.1678C32.7867 21.4744 32.5383 21.7233 32.2317 21.7233Z" fill="black"/>
<path d="M32.28 15.1161C31.9728 15.1161 31.7244 14.8672 31.7244 14.5606V5.185C31.7244 2.93889 29.8961 1.11111 27.65 1.11111H22.35C20.1039 1.11111 18.2761 2.93889 18.2761 5.185V14.5606C18.2761 14.8672 18.0272 15.1161 17.7205 15.1161C17.4139 15.1161 17.165 14.8672 17.165 14.5606V5.185C17.165 2.32611 19.4911 0 22.35 0H27.6494C30.5083 0 32.835 2.32611 32.835 5.185V14.5606C32.8355 14.8678 32.5866 15.1161 32.28 15.1161Z" fill="black"/>
<path d="M26.7411 11.24H17.7205C17.4139 11.24 17.165 10.9911 17.165 10.6844C17.165 10.3778 17.4139 10.1289 17.7205 10.1289H26.7411C27.0483 10.1289 27.2966 10.3778 27.2966 10.6844C27.2966 10.9911 27.0483 11.24 26.7411 11.24Z" fill="black"/>
<path d="M32.2317 41.8789H9.06721C8.76055 41.8789 8.51166 41.6306 8.51166 41.3233C8.51166 41.0161 8.76055 40.7678 9.06721 40.7678H32.2311C32.5383 40.7678 32.7867 41.0161 32.7867 41.3233C32.7867 41.6306 32.5383 41.8789 32.2317 41.8789Z" fill="black"/>
<path d="M25 37.6906C24.8577 37.6906 24.7155 37.6361 24.6072 37.5278L19.7277 32.6483C18.215 31.135 18.2144 28.6733 19.7277 27.1606C21.1705 25.7178 23.4777 25.6506 25.0005 26.9611C26.5227 25.6511 28.8294 25.7172 30.2728 27.1606C31.7855 28.6733 31.7855 31.135 30.2728 32.6483L25.3933 37.5278C25.2844 37.6361 25.1422 37.6906 25 37.6906ZM22.4711 27.1367C21.7616 27.1367 21.0527 27.4061 20.5127 27.9461C19.4333 29.0256 19.4333 30.7822 20.5127 31.8628L25 36.3494L29.4866 31.8628C30.5661 30.7828 30.5661 29.0261 29.4866 27.9461C28.9639 27.4233 28.2683 27.135 27.5289 27.135C26.7894 27.135 26.0939 27.4233 25.5711 27.9461L25.3933 28.1239C25.1761 28.3411 24.825 28.3411 24.6077 28.1239L24.43 27.9461C23.8894 27.4061 23.1805 27.1367 22.4711 27.1367Z" fill="black"/>
</svg>
