<svg width="17" height="17" viewBox="0 0 17 17" fill="none" xmlns="http://www.w3.org/2000/svg">
<path d="M2.33201 6.83917C2.16393 6.839 2.00259 6.90527 1.88315 7.02354C1.76371 7.1418 1.69586 7.30248 1.69437 7.47056C1.69369 7.52882 1.70213 7.58682 1.71938 7.64247L3.33536 13.3406C3.41025 13.6068 3.57032 13.841 3.79105 14.0076C4.01177 14.1741 4.281 14.2637 4.5575 14.2627H11.8341C12.1111 14.2629 12.3807 14.1731 12.6023 14.0068C12.8238 13.8405 12.9854 13.6067 13.0625 13.3406L14.6784 7.64247L14.6972 7.47056C14.6957 7.30248 14.6279 7.1418 14.5084 7.02354C14.389 6.90527 14.2276 6.839 14.0596 6.83917H2.33201ZM8.37458 11.8425C8.11478 11.8412 7.8612 11.7629 7.64581 11.6177C7.43043 11.4724 7.26291 11.2666 7.16439 11.0262C7.06587 10.7858 7.04076 10.5216 7.09224 10.2669C7.14372 10.0123 7.26947 9.7786 7.45363 9.59535C7.63779 9.41211 7.87211 9.28752 8.12701 9.23731C8.38191 9.1871 8.64597 9.21352 8.88586 9.31324C9.12576 9.41296 9.33075 9.5815 9.47495 9.7976C9.61915 10.0137 9.69611 10.2677 9.69612 10.5275C9.69446 10.8769 9.55449 11.2114 9.30682 11.4578C9.05916 11.7042 8.72396 11.8425 8.37458 11.8425V11.8425Z" stroke="black" stroke-width="1.00189" stroke-linejoin="round"/>
<path d="M5.19507 6.83994L8.19615 2.8385L11.1972 6.83994" stroke="black" stroke-width="1.00189" stroke-linejoin="round"/>
</svg>
