<svg width="50" height="50" viewBox="0 0 50 50" fill="none" xmlns="http://www.w3.org/2000/svg">
<path d="M14.9028 22.2922H44.4844C45.6894 22.2922 46.6667 23.2689 46.6667 24.4744V34.7739C46.6667 35.9789 45.69 36.9561 44.4844 36.9561H5.51555C4.31 36.9561 3.33333 35.9789 3.33333 34.7739V24.4744C3.33333 23.2694 4.31 22.2922 5.51555 22.2922H8.81H14.9028Z" fill="#84D3FF" fill-opacity="0.76"/>
<path d="M46.9256 40.3283H3.07444C1.37889 40.3283 0 38.9489 0 37.2539V22.0028C0 20.3072 1.37889 18.9283 3.07444 18.9283H5.19111C5.49778 18.9283 5.74667 19.1772 5.74667 19.4839C5.74667 19.7906 5.49778 20.0394 5.19111 20.0394H3.07444C1.99167 20.0394 1.11111 20.9206 1.11111 22.0028V37.2533C1.11111 38.3361 1.99167 39.2167 3.07444 39.2167H46.9256C48.0083 39.2167 48.8889 38.3361 48.8889 37.2533V22.0028C48.8889 20.92 48.0083 20.0394 46.9256 20.0394H40.11C39.8028 20.0394 39.5544 19.7906 39.5544 19.4839C39.5544 19.1772 39.8028 18.9283 40.11 18.9283H46.9256C48.6211 18.9283 50 20.3072 50 22.0028V37.2533C50 38.9489 48.6211 40.3283 46.9256 40.3283Z" fill="black"/>
<path d="M25 13.9306C23.8261 13.9306 22.8706 12.9756 22.8706 11.8011C22.8706 10.6267 23.8256 9.67166 25 9.67166C26.1744 9.67166 27.1294 10.6267 27.1294 11.8011C27.1294 12.975 26.1739 13.9306 25 13.9306ZM25 10.7828C24.4389 10.7828 23.9817 11.2394 23.9817 11.8011C23.9817 12.3622 24.4383 12.8194 25 12.8194C25.5617 12.8194 26.0183 12.3628 26.0183 11.8011C26.0183 11.2394 25.5617 10.7828 25 10.7828Z" fill="black"/>
<path d="M9.97222 20.0394C9.77 20.0394 9.57555 19.9289 9.47666 19.7367C9.33722 19.4633 9.44555 19.1289 9.71888 18.9889L23.3522 12.0194C23.6261 11.8805 23.96 11.9883 24.1 12.2617C24.2394 12.535 24.1311 12.8694 23.8578 13.0094L10.2244 19.9789C10.1433 20.02 10.0572 20.0394 9.97222 20.0394Z" fill="black"/>
<path d="M40.1094 20.0394C40.0244 20.0394 39.9378 20.02 39.8572 19.9789L26.1606 12.9767C25.8872 12.8372 25.7789 12.5022 25.9183 12.2289C26.0578 11.9555 26.3933 11.8478 26.6661 11.9867L40.3628 18.9889C40.6361 19.1283 40.7444 19.4633 40.605 19.7367C40.5067 19.9294 40.3122 20.0394 40.1094 20.0394Z" fill="black"/>
<path d="M33.0911 20.0394H9.97166C9.665 20.0394 9.41611 19.7906 9.41611 19.4839C9.41611 19.1772 9.665 18.9283 9.97166 18.9283H33.0917C33.3989 18.9283 33.6472 19.1772 33.6472 19.4839C33.6472 19.7906 33.3983 20.0394 33.0911 20.0394Z" fill="black"/>
<path d="M11.4378 35.705H9.45333C7.90222 35.705 6.64 34.4433 6.64 32.8917V26.9339C6.64 25.3828 7.90222 24.1205 9.45333 24.1205H11.4378C12.9889 24.1205 14.2511 25.3828 14.2511 26.9339V32.8911C14.2517 34.4428 12.9894 35.705 11.4378 35.705ZM9.45389 25.2317C8.515 25.2317 7.75167 25.9955 7.75167 26.9339V32.8911C7.75167 33.8294 8.51556 34.5933 9.45389 34.5933H11.4383C12.3772 34.5933 13.1406 33.8294 13.1406 32.8911V26.9339C13.1406 25.9955 12.3767 25.2317 11.4383 25.2317H9.45389Z" fill="black"/>
<path d="M21.39 31.1055H17.5567C17.25 31.1055 17.0011 30.8572 17.0011 30.55V24.6761C17.0011 24.3694 17.25 24.1205 17.5567 24.1205H21.39C22.8217 24.1205 23.9861 25.285 23.9861 26.7167V28.51C23.9861 29.9411 22.8217 31.1055 21.39 31.1055ZM18.1122 29.9944H21.39C22.2089 29.9944 22.875 29.3283 22.875 28.5094V26.7167C22.875 25.8978 22.2089 25.2317 21.39 25.2317H18.1122V29.9944Z" fill="black"/>
<path d="M17.5567 35.705C17.25 35.705 17.0011 35.4567 17.0011 35.1494V30.55C17.0011 30.2428 17.25 29.9944 17.5567 29.9944C17.8633 29.9944 18.1122 30.2428 18.1122 30.55V35.1489C18.1122 35.4561 17.8633 35.705 17.5567 35.705Z" fill="black"/>
<path d="M42.8044 35.705C42.6189 35.705 42.4417 35.6117 42.3372 35.45L36.6233 26.5667V35.1489C36.6233 35.4561 36.375 35.7044 36.0678 35.7044C35.7606 35.7044 35.5122 35.4561 35.5122 35.1489V24.6761C35.5122 24.4294 35.6744 24.2128 35.9111 24.1433C36.1489 24.0744 36.4017 24.1683 36.535 24.3755L42.2489 33.2583V24.6761C42.2489 24.3694 42.4972 24.1205 42.8044 24.1205C43.1117 24.1205 43.36 24.3694 43.36 24.6761V35.1494C43.36 35.3955 43.1978 35.6128 42.9611 35.6822C42.9089 35.6978 42.8567 35.705 42.8044 35.705Z" fill="black"/>
<path d="M32.0461 35.705H27.4039C27.0967 35.705 26.8483 35.4567 26.8483 35.1494V24.6761C26.8483 24.3694 27.0967 24.1205 27.4039 24.1205H32.0461C32.3533 24.1205 32.6017 24.3694 32.6017 24.6761C32.6017 24.9828 32.3533 25.2317 32.0461 25.2317H27.9594V34.5939H32.0461C32.3533 34.5939 32.6017 34.8422 32.6017 35.1494C32.6017 35.4567 32.3528 35.705 32.0461 35.705Z" fill="black"/>
<path d="M30.44 30.4683H27.4033C27.0961 30.4683 26.8478 30.22 26.8478 29.9128C26.8478 29.6055 27.0961 29.3572 27.4033 29.3572H30.44C30.7472 29.3572 30.9956 29.6055 30.9956 29.9128C30.9956 30.22 30.7472 30.4683 30.44 30.4683Z" fill="black"/>
</svg>
